<svg xmlns="http://www.w3.org/2000/svg" viewBox="0 0 448 512"><!--!Font Awesome Free v7.1.0 by @fontawesome - https://fontawesome.com License - https://fontawesome.com/license/free Copyright 2026 Fonticons, Inc.--><style>
    path {
    fill: black;
    }
    @media (prefers-color-scheme: dark) {
    path { fill: white; }
    }
</style><path d="M256 160l0 96 128 0 0-96-128 0zm-64 0l-128 0 0 96 128 0 0-96zM0 320L0 96C0 60.7 28.7 32 64 32l320 0c35.3 0 64 28.7 64 64l0 320c0 35.3-28.7 64-64 64L64 480c-35.3 0-64-28.7-64-64l0-96zm384 0l-128 0 0 96 128 0 0-96zM192 416l0-96-128 0 0 96 128 0z"/></svg>